<?xml version="1.0" encoding="iso-8859-1"?>
<!-- Generator: Adobe Illustrator 16.0.0, SVG Export Plug-In . SVG Version: 6.00 Build 0)  -->
<!DOCTYPE svg PUBLIC "-//W3C//DTD SVG 1.1//EN" "http://www.w3.org/Graphics/SVG/1.1/DTD/svg11.dtd" [
	<!ENTITY ns_flows "http://ns.adobe.com/Flows/1.0/">
	<!ENTITY ns_extend "http://ns.adobe.com/Extensibility/1.0/">
	<!ENTITY ns_ai "http://ns.adobe.com/AdobeIllustrator/10.0/">
	<!ENTITY ns_graphs "http://ns.adobe.com/Graphs/1.0/">
]>
<svg version="1.1" id="Calque_1" xmlns:x="&ns_extend;" xmlns:i="&ns_ai;" xmlns:graph="&ns_graphs;"
	 xmlns="http://www.w3.org/2000/svg" xmlns:xlink="http://www.w3.org/1999/xlink" xmlns:a="http://ns.adobe.com/AdobeSVGViewerExtensions/3.0/"
	 x="0px" y="0px" width="129.99px" height="129.99px" viewBox="0 0 129.99 129.99" enable-background="new 0 0 129.99 129.99"
	 xml:space="preserve">
<g>
	<circle fill="none" stroke="#4C4B4B" stroke-width="10" stroke-miterlimit="10" cx="64.995" cy="64.995" r="59.995"/>
	<g>
		<path fill="#4C4B4B" d="M112.795,82.46c0,3.118-2.551,5.669-5.67,5.669H24.714c-3.118,0-5.669-2.551-5.669-5.669V51.799
			c0-3.118,2.551-5.669,5.669-5.669h82.411c3.119,0,5.67,2.551,5.67,5.669V82.46z"/>
	</g>
	<rect x="36.045" y="39.129" fill="#4C4B4B" width="61" height="15.75"/>
	<circle fill="#FFFFFF" cx="31.545" cy="55.879" r="4.75"/>
	<circle fill="#FFFFFF" cx="100.045" cy="50.879" r="2"/>
	
		<rect x="42.295" y="29.629" fill="#F8F7F7" stroke="#4C4B4B" stroke-width="3" stroke-miterlimit="10" width="48.5" height="24.25"/>
	<polygon fill="#F8F7F7" stroke="#4C4B4B" stroke-width="3" stroke-miterlimit="10" points="91.361,74.297 95.529,96.547 
		67.665,96.547 65.075,96.547 37.211,96.547 41.378,74.297 	"/>
	<line fill="none" stroke="#4C4B4B" stroke-width="2" stroke-miterlimit="10" x1="72.211" y1="91.297" x2="89.045" y2="91.297"/>
	<line fill="none" stroke="#4C4B4B" stroke-width="2" stroke-miterlimit="10" x1="44.711" y1="86.963" x2="88.045" y2="86.963"/>
	<line fill="none" stroke="#4C4B4B" stroke-width="2" stroke-miterlimit="10" x1="46.211" y1="82.629" x2="86.162" y2="82.629"/>
	<line fill="none" stroke="#4C4B4B" stroke-width="2" stroke-miterlimit="10" x1="47.045" y1="78.296" x2="58.545" y2="78.296"/>
</g>
</svg>
