<?xml version="1.0" encoding="iso-8859-1"?>
<!-- Generator: Adobe Illustrator 16.0.0, SVG Export Plug-In . SVG Version: 6.00 Build 0)  -->
<!DOCTYPE svg PUBLIC "-//W3C//DTD SVG 1.1//EN" "http://www.w3.org/Graphics/SVG/1.1/DTD/svg11.dtd" [
	<!ENTITY ns_flows "http://ns.adobe.com/Flows/1.0/">
	<!ENTITY ns_extend "http://ns.adobe.com/Extensibility/1.0/">
	<!ENTITY ns_ai "http://ns.adobe.com/AdobeIllustrator/10.0/">
	<!ENTITY ns_graphs "http://ns.adobe.com/Graphs/1.0/">
]>
<svg version="1.1" id="Calque_1" xmlns:x="&ns_extend;" xmlns:i="&ns_ai;" xmlns:graph="&ns_graphs;"
	 xmlns="http://www.w3.org/2000/svg" xmlns:xlink="http://www.w3.org/1999/xlink" xmlns:a="http://ns.adobe.com/AdobeSVGViewerExtensions/3.0/"
	 x="0px" y="0px" width="129.99px" height="129.99px" viewBox="0 0 129.99 129.99" enable-background="new 0 0 129.99 129.99"
	 xml:space="preserve">
<circle fill="none" stroke="#4C4B4B" stroke-width="10" stroke-miterlimit="10" cx="64.995" cy="64.995" r="59.995"/>
<path fill="none" stroke="#4C4B4B" stroke-width="4" stroke-miterlimit="10" d="M101.384,45.319v51.302
	c0,1.316-0.639,2.383-1.427,2.383H29.633c-0.788,0-1.427-1.066-1.427-2.383V43.68c0-1.315,0.639-2.382,1.427-2.382h15.305"/>
<path fill="none" stroke="#4C4B4B" stroke-width="4" stroke-miterlimit="10" d="M44.938,41.298h-7.99
	c-1.235,0-2.236-0.479-2.236-1.07v-4.279c0-0.591,1.001-1.07,2.236-1.07H47.33"/>
<polyline fill="none" stroke="#4C4B4B" stroke-width="3" stroke-miterlimit="10" points="101.384,45.319 82.688,95.492 
	31.809,76.534 55.572,12.761 106.451,31.72 101.384,45.319 "/>
<path fill="none" stroke="#4C4B4B" stroke-miterlimit="10" d="M65.725,35.787"/>
<line fill="none" stroke="#4C4B4B" stroke-miterlimit="10" x1="71.516" y1="20.246" x2="70.199" y2="23.778"/>
<line fill="none" stroke="#4C4B4B" stroke-miterlimit="10" x1="64.337" y1="26.596" x2="60.792" y2="25.275"/>
<line fill="none" stroke="#4C4B4B" stroke-miterlimit="10" x1="76.333" y1="31.066" x2="72.768" y2="29.737"/>
<line fill="none" stroke="#4C4B4B" stroke-miterlimit="10" x1="74.899" y1="25.274" x2="72.754" y2="26.255"/>
<line fill="none" stroke="#4C4B4B" stroke-miterlimit="10" x1="70.377" y1="32.141" x2="71.458" y2="34.506"/>
<line fill="none" stroke="#4C4B4B" stroke-miterlimit="10" x1="65.667" y1="21.834" x2="66.646" y2="23.977"/>
<circle fill="#4C4B4B" cx="68.62" cy="28.016" r="3.667"/>
<g>
	
		<ellipse transform="matrix(0.9371 0.3492 -0.3492 0.9371 13.7455 -18.7494)" fill="#4C4B4B" cx="58.878" cy="28.751" rx="7.466" ry="2.603"/>
	
		<ellipse transform="matrix(0.9371 0.3492 -0.3492 0.9371 16.3656 -20.8557)" fill="#4C4B4B" cx="66.031" cy="34.966" rx="7.345" ry="3.347"/>
	
		<ellipse transform="matrix(0.937 0.3492 -0.3492 0.937 14.9165 -20.3666)" fill="#4C4B4B" cx="63.938" cy="31.183" rx="4.091" ry="4.044"/>
</g>
<g>
	<g>
		<g>
			<path fill="none" stroke="#4C4B4B" stroke-miterlimit="10" d="M80.847,27.475c0,0,0.567,0.464,1.261,1.031
				c0.693,0.566,1.492,1.537,1.775,2.156c0.283,0.62,0.41,1.588,0.282,2.152s-0.232,1.025-0.232,1.025"/>
		</g>
		<g>
			<path fill="none" stroke="#4C4B4B" stroke-miterlimit="10" d="M90.431,31.046c0,0-0.732-0.021-1.628-0.045
				c-0.896-0.025-2.135,0.186-2.754,0.469s-1.349,0.933-1.621,1.442s-0.495,0.927-0.495,0.927"/>
		</g>
	</g>
</g>
<g>
	<g>
		<g>
			<path fill="none" stroke="#4C4B4B" stroke-miterlimit="10" d="M93.63,37.069c0,0,0.477,0.39,1.06,0.866
				c0.583,0.477,1.255,1.292,1.493,1.813s0.345,1.335,0.238,1.81s-0.195,0.862-0.195,0.862"/>
		</g>
		<g>
			<path fill="none" stroke="#4C4B4B" stroke-miterlimit="10" d="M101.69,40.072c0,0-0.616-0.018-1.369-0.039
				c-0.753-0.021-1.795,0.156-2.316,0.394c-0.521,0.238-1.134,0.784-1.363,1.213s-0.416,0.78-0.416,0.78"/>
		</g>
	</g>
</g>
<g>
	<g>
		<g>
			<path fill="none" stroke="#4C4B4B" stroke-miterlimit="10" d="M51.822,39.791c0,0,0.376,0.362,0.835,0.804
				c0.459,0.442,0.969,1.224,1.132,1.737s0.194,1.335,0.068,1.826c-0.126,0.491-0.229,0.893-0.229,0.893"/>
		</g>
		<g>
			<path fill="none" stroke="#4C4B4B" stroke-miterlimit="10" d="M58.437,42.255c0,0-0.521,0.028-1.158,0.062
				c-0.637,0.034-1.534,0.292-1.993,0.573c-0.459,0.281-1.021,0.882-1.246,1.336c-0.226,0.454-0.411,0.825-0.411,0.825"/>
		</g>
	</g>
</g>
<ellipse transform="matrix(0.9371 0.3492 -0.3492 0.9371 30.5933 -16.5128)" fill="#4C4B4B" cx="61.098" cy="76.601" rx="23.131" ry="5.207"/>
<rect x="32.048" y="75.208" transform="matrix(0.9371 0.3492 -0.3492 0.9371 31.9336 -15.5846)" fill="#4C4B4B" width="54.296" height="11.156"/>
<g>
	<path fill="#4C4B4B" d="M62.035,72.381c0,0,0.474-0.795,1.053-1.767c0.58-0.972,1.953-3.016,3.052-4.542
		c1.099-1.526,3.059-3.927,4.355-5.335c1.296-1.409,4.383-3.551,6.859-4.76c2.477-1.209,5.467-2.353,6.646-2.542
		c1.179-0.188,2.317-0.278,2.529-0.199c0.211,0.079,0.311,0.343,0.22,0.587c-0.091,0.244-0.989,0.693-1.995,0.999
		c-1.006,0.306-3.05,1.133-4.542,1.838c-1.493,0.705-3.396,1.79-4.23,2.41s-2.163,2.017-2.954,3.104
		c-0.791,1.087-2.002,3.068-2.692,4.402c-0.69,1.334-1.784,3.58-2.43,4.991s-1.175,2.565-1.175,2.565"/>
</g>
<g>
	<path fill="#4C4B4B" d="M77.407,39.253c0.675-0.063,2.055,0.023,3.065,0.191c1.011,0.169,2.571,0.87,3.468,1.557
		c0.897,0.688,2.202,2.189,2.9,3.337c0.698,1.147,1.368,3.2,1.489,4.562s-0.148,3.116-0.598,3.9
		c-0.449,0.783-1.274,0.429-1.833-0.788c-0.559-1.216-1.661-3.312-2.45-4.656l-0.646-1.102c-0.789-1.345-2.404-3.274-3.588-4.288
		l-0.881-0.755C77.148,40.199,76.731,39.317,77.407,39.253z"/>
</g>
<g>
	<path fill="#4C4B4B" d="M71.868,45.845c0.566-0.373,1.825-0.945,2.796-1.271c0.971-0.326,2.678-0.44,3.792-0.255
		s2.972,0.897,4.127,1.583c1.155,0.685,2.711,2.182,3.458,3.328c0.747,1.146,1.334,2.821,1.306,3.723
		c-0.028,0.902-0.922,0.977-1.987,0.166c-1.065-0.812-3.023-2.143-4.351-2.959l-1.089-0.668c-1.328-0.816-3.66-1.761-5.182-2.099
		l-1.132-0.251C72.083,46.801,71.301,46.219,71.868,45.845z"/>
</g>
<g>
	<path fill="#4C4B4B" d="M69.969,57.917c0.153-0.661,0.67-1.943,1.15-2.848c0.48-0.906,1.638-2.165,2.573-2.798
		c0.935-0.633,2.772-1.397,4.081-1.697c1.309-0.3,3.469-0.287,4.799,0.028s2.911,1.125,3.512,1.799s0.004,1.344-1.326,1.49
		c-1.33,0.146-3.667,0.53-5.192,0.854l-1.25,0.266c-1.525,0.324-3.866,1.246-5.202,2.05l-0.994,0.598
		C70.784,58.462,69.816,58.578,69.969,57.917z"/>
</g>
<g>
	<path fill="#4C4B4B" d="M84.042,48.915c0.671-0.102,2.053-0.095,3.072,0.016c1.018,0.111,2.616,0.721,3.551,1.356
		s2.323,2.06,3.085,3.166c0.763,1.105,1.549,3.117,1.747,4.47s0.03,3.12-0.373,3.928c-0.404,0.808-1.248,0.501-1.875-0.682
		c-0.627-1.183-1.848-3.212-2.713-4.509l-0.708-1.063c-0.865-1.297-2.587-3.131-3.828-4.076l-0.922-0.702
		C83.837,49.874,83.372,49.017,84.042,48.915z"/>
</g>
<g>
	<path fill="#4C4B4B" d="M84.199,50.926c0.627,0.258,1.808,0.977,2.624,1.598s1.87,1.967,2.343,2.994
		c0.473,1.026,0.927,2.962,1.01,4.303c0.083,1.341-0.281,3.47-0.809,4.731c-0.528,1.261-1.583,2.688-2.345,3.172
		c-0.763,0.484-1.327-0.214-1.255-1.551c0.073-1.337,0.073-3.705,0.002-5.262l-0.059-1.276c-0.071-1.557-0.601-4.017-1.177-5.466
		l-0.428-1.078C83.529,51.642,83.571,50.667,84.199,50.926z"/>
</g>
<ellipse transform="matrix(0.9371 0.3491 -0.3491 0.9371 16.7798 -27.3571)" fill="#4C4B4B" cx="84.292" cy="32.876" rx="0.948" ry="1.31"/>
<ellipse transform="matrix(0.9369 0.3495 -0.3495 0.9369 20.8975 -30.959)" fill="#4C4B4B" cx="96.225" cy="42.42" rx="0.949" ry="1.31"/>
<ellipse transform="matrix(0.9369 0.3495 -0.3495 0.9369 18.7939 -16.1296)" fill="#4C4B4B" cx="54.086" cy="44.006" rx="0.949" ry="1.31"/>
<path fill="#4C4B4B" stroke="#4C4B4B" stroke-width="4" stroke-miterlimit="10" d="M89.53,59.879
	c6.552,0,11.854,17.499,11.854,39.125H26.899c0-21.625-5.302-39.125-11.854-39.125H89.53z"/>
</svg>
